<svg width="28" height="28" viewBox="0 0 28 28" xmlns="http://www.w3.org/2000/svg"><g transform="translate(-10 -10)" fill="none" fill-rule="evenodd"><circle stroke="currentColor" stroke-width="2" cx="24" cy="24" r="24"/><path d="M27.017 11L10.8 27.218c-.207.207-.207.547 0 .754l9.43 9.43c.206.207.546.207.753 0L37.2 21.182c.207-.207.207-.547 0-.754L27.77 11c-.206-.207-.546-.207-.753 0zm2.508 12.578l-4.903-4.903 4.658-4.657 4.902 4.902-4.657 4.658zm-5.393 5.393L19.23 24.07l4.657-4.657 4.902 4.903-4.658 4.658zm-5.412 5.412l-4.902-4.902 4.657-4.658 4.903 4.903-4.658 4.657zm8.75-20.063l-1.132-1.132 1.056-1.056 1.13 1.13-1.054 1.057zm-.755.754L25.66 16.13l-1.132-1.132 1.056-1.056 1.13 1.132zm-1.79 1.79l-1.057 1.057-1.13-1.13 1.055-1.056 1.13 1.13zm-1.81 1.81l-1.057 1.057-1.132-1.13 1.056-1.056 1.132 1.13zm-1.793 1.792l-1.056 1.056-1.13-1.13 1.055-1.057 1.132 1.13zm-1.81 1.81l-1.056 1.057-1.13-1.132 1.055-1.055 1.132 1.132zm-1.79 1.792l-1.057 1.056-1.13-1.13 1.055-1.057 1.13 1.13zm-1.81 1.81l-1.057 1.056-1.132-1.13 1.056-1.057 1.13 1.13zm-1.793 1.792l-1.057 1.055-1.13-1.13 1.055-1.057 1.13 1.132zm5.355 7.467l1.055-1.056 1.132 1.132-1.056 1.056-1.13-1.13zm1.81-1.81l1.056-1.057 1.132 1.132-1.056 1.056-1.13-1.132zm1.79-1.792l1.057-1.056 1.13 1.13-1.055 1.056-1.13-1.13zm1.81-1.81l1.057-1.056 1.132 1.13-1.056 1.056-1.132-1.13zm1.793-1.79l1.056-1.057 1.13 1.13-1.055 1.057-1.132-1.13zm1.81-1.812l1.056-1.056 1.13 1.132-1.055 1.055-1.132-1.132zm1.79-1.79l1.057-1.057 1.13 1.13-1.055 1.057-1.13-1.13zm1.81-1.81l1.057-1.057 1.132 1.13-1.056 1.057-1.13-1.13zm1.793-1.793l1.057-1.055 1.13 1.13-1.055 1.057-1.13-1.132z" fill="currentColor"/></g></svg>