<svg width="24" height="26" viewBox="0 0 24 26" xmlns="http://www.w3.org/2000/svg"><g transform="translate(-12 -11)" fill="none" fill-rule="evenodd"><circle stroke="currentColor" stroke-width="2" cx="24" cy="24" r="24"/><g fill="currentColor"><path d="M18.372 36.737h-.036c-1.278 0-2.32-1.04-2.32-2.32V24.244c0-.836-.37-1.644-1.04-2.278-1.237-1.163-1.946-2.882-1.946-4.715 0-3.367 2.39-6.106 5.325-6.106 2.938 0 5.325 2.74 5.325 6.106 0 1.833-.71 3.552-1.946 4.715-.672.634-1.043 1.442-1.043 2.278v10.17c0 1.282-1.04 2.322-2.318 2.322zm-.02-24.55c-2.363 0-4.285 2.273-4.285 5.065 0 1.547.59 2.99 1.617 3.96.884.83 1.37 1.907 1.37 3.033v10.17c0 .707.575 1.282 1.28 1.282h.036c.706 0 1.28-.575 1.28-1.28V24.244c0-1.126.487-2.202 1.37-3.034 1.03-.968 1.62-2.41 1.62-3.958.002-2.794-1.922-5.066-4.287-5.066zM29.983 36.737h-.036c-1.28 0-2.32-1.04-2.32-2.32V24.244c0-.836-.37-1.644-1.04-2.278-1.237-1.163-1.946-2.882-1.946-4.715 0-1.406 0-3.155 1.094-4.374.21-.23.49-.357.797-.357.582 0 1.056.46 1.077 1.033l.448 3.343c.01.072.127.053.133-.002l.46-4.1c.015-.487.364-.91.843-1.017.04-.007.075-.013.113-.013h.728c.04 0 .077.004.113.013.478.106.828.53.843 1.016l.46 4.1c.01.075.125.056.132.003l.45-3.343c.02-.572.495-1.032 1.075-1.032.307 0 .588.127.796.358 1.093 1.22 1.093 2.968 1.093 4.374 0 1.833-.71 3.552-1.945 4.715-.67.634-1.042 1.444-1.042 2.278v10.17c-.002 1.282-1.042 2.322-2.323 2.322zm-3.865-23.512l.386.347c-.766.854-.826 2.118-.826 3.68 0 1.547.59 2.99 1.617 3.96.883.83 1.37 1.907 1.37 3.033v10.17c0 .707.575 1.282 1.28 1.282h.036c.706 0 1.282-.575 1.282-1.28V24.244c0-1.126.486-2.202 1.37-3.034 1.028-.968 1.617-2.41 1.617-3.958 0-1.562-.062-2.826-.828-3.68 0 .023-.062.067-.066.09l-.452 3.372c-.072.545-.542.956-1.092.956-.57 0-1.042-.42-1.105-.978l-.46-4.126c-.003-.02-.005-.038-.005-.06l.004-.02h-.533c-.008.023-.03.063-.03.08l-.462 4.126c-.062.557-.533.978-1.095.978-.56 0-1.03-.41-1.1-.956l-.453-3.373c-.003-.02-.003-.044-.003-.067l-.452-.368z"/><path d="M18.397 21.105c-1.72 0-3.118-1.67-3.118-3.723 0-2.054 1.397-3.724 3.117-3.724.216 0 .39.174.39.39 0 .215-.174.39-.39.39-1.29 0-2.338 1.32-2.338 2.944 0 1.623 1.046 2.944 2.337 2.944.216 0 .39.174.39.39 0 .215-.174.39-.39.39z"/></g></g></svg>