<svg width="20" height="16" viewBox="0 0 20 16" xmlns="http://www.w3.org/2000/svg"><g transform="translate(0 .11)" fill="currentColor" fill-rule="evenodd"><path d="M6.036 10.096c-.342.343-.342.898 0 1.24.343.344.9.344 1.24 0 1.503-1.5 3.947-1.5 5.45 0 .342.344.898.344 1.24 0 .172-.17.257-.394.257-.62 0-.224-.085-.448-.256-.62-2.187-2.186-5.744-2.186-7.93 0z"/><path d="M3.02 7.3c-.342.343-.342.9 0 1.242.344.342.9.342 1.242 0 3.164-3.165 8.314-3.165 11.478 0 .343.342.9.342 1.24 0 .172-.172.258-.397.258-.62 0-.226-.086-.45-.257-.622C15.118 5.436 12.64 4.41 10 4.41c-2.636 0-5.114 1.026-6.98 2.89z"/><path d="M.26 4.182c-.343.343-.343.9 0 1.24.342.344.898.344 1.24 0 2.27-2.27 5.29-3.52 8.5-3.52 3.212 0 6.23 1.25 8.502 3.52.343.344.898.344 1.24 0 .172-.17.258-.395.258-.62 0-.224-.086-.448-.257-.62C17.14 1.58 13.68.147 10 .147 6.32.147 2.86 1.58.26 4.182z"/><circle cx="10.001" cy="13.73" r="1.227"/></g></svg>